<svg width="100%" height="100%" id="svg" viewBox="0 0 1440 590" xmlns="http://www.w3.org/2000/svg" class="transition duration-300 ease-in-out delay-150"><path d="M 0,600 L 0,112 C 53.94017201475424,131.65462823103172 107.88034402950848,151.30925646206342 150,152 C 192.11965597049152,152.69074353793658 222.41879589672033,134.41760238277797 254,125 C 285.5812041032797,115.58239761722203 318.4444723836102,115.02033400682464 369,123 C 419.5555276163898,130.97966599317536 487.8033145688387,147.50106158992347 540,149 C 592.1966854311613,150.49893841007653 628.3422693410351,136.9754196334814 667,122 C 705.6577306589649,107.02458036651858 746.8276080670208,90.5972598761508 789,92 C 831.1723919329792,93.4027401238492 874.3472983908812,112.63554086191539 925,133 C 975.6527016091188,153.3644591380846 1033.7831983694546,174.86057667618763 1070,162 C 1106.2168016305454,149.13942332381237 1120.5199081313008,101.9221524333341 1163,84 C 1205.4800918686992,66.0778475666659 1276.1371691053428,77.45081359047596 1327,87 C 1377.8628308946572,96.54918640952404 1408.9314154473286,104.27459320476203 1440,112 L 1440,600 L 0,600 Z" stroke="none" stroke-width="0" fill="#eb144c" fill-opacity="0.4" class="transition-all duration-300 ease-in-out delay-150 path-0" transform="rotate(-180 720 300)"></path><path d="M 0,600 L 0,262 C 46.025039001698204,272.38984344426166 92.05007800339641,282.7796868885233 141,291 C 189.9499219966036,299.2203131114767 241.82472698811267,305.2710958901684 286,287 C 330.1752730118873,268.7289041098316 366.65101404415293,226.1359295508031 399,228 C 431.34898595584707,229.8640704491969 459.57121683527566,276.1851859066191 499,283 C 538.4287831647243,289.8148140933809 589.0641186147446,257.1233268227207 647,234 C 704.9358813852554,210.87667317727932 770.1723087057456,197.32150680249822 809,214 C 847.8276912942544,230.67849319750178 860.2466465622725,277.59064596728643 891,295 C 921.7533534377275,312.40935403271357 970.8411050451639,300.3159093283562 1022,293 C 1073.1588949548361,285.6840906716438 1126.3889332570711,283.1457167192887 1176,281 C 1225.6110667429289,278.8542832807113 1271.603161926551,277.10122379448893 1315,274 C 1358.396838073449,270.89877620551107 1399.1984190367245,266.4493881027555 1440,262 L 1440,600 L 0,600 Z" stroke="none" stroke-width="0" fill="#eb144c" fill-opacity="0.53" class="transition-all duration-300 ease-in-out delay-150 path-1" transform="rotate(-180 720 300)"></path><path d="M 0,600 L 0,412 C 51.77223716574083,390.577813036218 103.54447433148167,369.155626072436 152,380 C 200.45552566851833,390.844373927564 245.59433983981415,433.9553087464739 283,433 C 320.40566016018585,432.0446912535261 350.0781663092618,387.0231389416683 396,373 C 441.9218336907382,358.9768610583317 504.0929949231387,375.95213548685274 543,380 C 581.9070050768613,384.04786451314726 597.5498539981832,375.16831911092066 638,369 C 678.4501460018168,362.83168088907934 743.7075890841287,359.37458806946466 796,368 C 848.2924109158713,376.62541193053534 887.6197896653026,397.3333286112208 921,420 C 954.3802103346974,442.6666713887792 981.8132522546609,467.29209748565216 1029,454 C 1076.186747745339,440.70790251434784 1143.1272013160528,389.49828144617055 1195,393 C 1246.8727986839472,396.50171855382945 1283.6779424811277,454.7147767296655 1322,467 C 1360.3220575188723,479.2852232703345 1400.1610287594362,445.6426116351672 1440,412 L 1440,600 L 0,600 Z" stroke="none" stroke-width="0" fill="#eb144c" fill-opacity="1" class="transition-all duration-300 ease-in-out delay-150 path-2" transform="rotate(-180 720 300)"></path></svg>
