<svg width="22" height="29" viewBox="0 0 22 29" fill="none" xmlns="http://www.w3.org/2000/svg">
<path d="M0.0304666 8.69284C0.0913996 8.36695 0.0913995 8.01391 0.152333 7.68803C0.456998 6.52028 0.974928 5.40685 1.82799 4.45635C2.43732 3.77743 3.04665 3.07135 3.77785 2.52821C4.66138 1.9036 5.66677 1.38762 6.6417 0.898795C8.01269 0.192715 9.59695 0.0840873 11.1203 0.00261648C11.9124 -0.0245405 12.7045 0.165558 13.4967 0.301343C15.3856 0.600069 17.0308 1.36046 18.4322 2.50105C20.1688 3.88606 21.2961 5.65126 21.875 7.66087C22.1796 8.61136 21.9359 9.20882 21.0524 9.42607C20.1079 9.64333 19.133 9.77911 18.158 9.88774C17.3659 9.96921 16.5738 9.96921 15.7817 9.99637C15.5989 9.99637 15.3856 9.96921 15.1723 9.94205C14.8981 9.9149 14.5935 9.86058 14.3193 9.86058C13.9841 9.83343 13.649 9.86058 13.192 9.86058C13.1615 9.04588 13.1311 8.36695 13.1006 7.66087C13.1006 7.11773 13.1615 6.57459 13.0701 6.05861C13.0397 5.8142 12.7045 5.46116 12.4913 5.434C12.0952 5.37969 11.821 5.67842 11.821 6.08577C11.821 6.14008 11.821 6.1944 11.821 6.22155C11.821 7.52509 11.8515 8.82862 11.821 10.1322C11.7905 11.137 12.0952 11.1913 13.0701 11.2727C14.3497 11.3814 15.6293 11.2727 16.9089 11.2999C17.9143 11.3271 18.9197 11.3271 19.8946 11.49C20.8086 11.6529 21.6008 12.3047 21.4789 13.0379C21.3875 13.6082 21.3266 14.1785 21.1438 14.6945C20.8391 15.5364 20.504 16.3782 20.0774 17.1658C19.5595 18.1978 19.0416 19.2569 18.3408 20.2345C16.8784 22.2713 15.3551 24.2538 13.7709 26.2091C13.0397 27.1324 12.1257 27.9743 11.3031 28.8433C11.0898 29.0605 10.9375 29.0605 10.7242 28.789C9.77975 27.5941 8.80482 26.4263 7.79943 25.2586C6.6417 23.9007 5.60584 22.4342 4.75277 20.9135C4.44811 20.3432 4.50904 20.2345 5.17931 20.0987C5.66677 19.9901 6.1847 19.9087 6.70263 19.9087C7.82989 19.8815 8.95715 19.8815 10.0844 19.9087C10.5414 19.9087 10.6937 20.1802 10.6633 20.5604C10.6328 21.1036 10.6328 21.6739 10.6633 22.217C10.6937 22.57 10.8461 22.8959 11.3031 22.9774C11.7905 23.0589 11.9733 22.7601 12.0952 22.4071C12.1561 22.2441 12.1866 22.054 12.1866 21.8911C12.1866 21.0492 12.1866 20.2345 12.1866 19.3927C12.1866 18.4965 11.8819 18.2249 10.8765 18.2521C9.77975 18.2792 8.71342 18.3607 7.61663 18.3879C6.6417 18.415 5.66677 18.415 4.72231 18.3879C4.26531 18.3607 3.71691 18.3064 3.35132 18.0891C2.83339 17.7633 2.34592 17.3016 2.07172 16.7856C0.792129 14.5859 0.152333 12.2232 0 9.7248" fill="#F0851D"/>
</svg>
