<svg width="25" height="25" viewBox="0 0 25 25" fill="none" xmlns="http://www.w3.org/2000/svg">
<g clip-path="url(#clip0_173_673)">
<path d="M0.6165 0H24.3835C24.724 0 25 0.276 25 0.6165V24.3833C25 24.7238 24.724 24.9998 24.3835 24.9998H0.6165C0.276 25 0 24.724 0 24.3835V0.6165C0 0.276 0.276 0 0.6165 0Z" fill="#E23744"/>
<path d="M4.88025 11.2715L4.86025 11.9058L3.2065 13.7038C3.89725 13.7038 4.33575 13.6968 4.588 13.6828C4.515 14.0243 4.45525 14.303 4.3955 14.721C4.0635 14.6933 3.54525 14.6863 3.02725 14.6863C2.4495 14.6863 1.9445 14.6933 1.53925 14.721L1.5525 14.08L3.2065 12.289C2.4825 12.289 2.21675 12.296 1.91775 12.303C1.98425 11.9825 2.03075 11.627 2.07725 11.2715C2.602 11.2925 2.808 11.2993 3.492 11.2993C4.123 11.2995 4.48175 11.2925 4.88025 11.2715ZM6.056 13.2603C6.056 13.6855 6.1955 13.9015 6.4345 13.9015C6.7535 13.9015 7.00575 13.386 7.00575 12.7588C7.00575 12.3268 6.86625 12.1178 6.63375 12.1178C6.315 12.1175 6.056 12.626 6.056 13.2603ZM8.228 12.7075C8.228 13.8643 7.411 14.826 6.32825 14.826C5.3585 14.826 4.86025 14.164 4.86025 13.3C4.86025 12.1503 5.684 11.1885 6.76 11.1885C7.743 11.1883 8.228 11.8503 8.228 12.7075ZM21.2445 13.2603C21.2445 13.6855 21.384 13.9015 21.623 13.9015C21.942 13.9015 22.1943 13.386 22.1943 12.7588C22.1943 12.3268 22.0548 12.1178 21.8223 12.1178C21.5038 12.1175 21.2445 12.626 21.2445 13.2603ZM23.461 12.683C23.461 13.855 22.6333 14.8293 21.5363 14.8293C20.5538 14.8293 20.049 14.1585 20.049 13.283C20.049 12.1183 20.8835 11.1438 21.9738 11.1438C22.9695 11.144 23.461 11.8148 23.461 12.683ZM13.814 12.31C13.9005 11.7175 13.8538 11.181 13.1963 11.181C12.718 11.181 12.2 11.5853 11.8345 12.261C11.9143 11.7035 11.8678 11.181 11.2168 11.181C10.7253 11.181 10.1938 11.606 9.8285 12.31C9.9215 11.85 9.9015 11.3275 9.875 11.2158C9.4965 11.2785 9.16425 11.3133 8.69925 11.3273C8.7125 11.6478 8.6925 12.066 8.63275 12.463L8.48 13.5083C8.42025 13.9193 8.35375 14.3935 8.2875 14.693H9.523C9.5295 14.5118 9.576 14.226 9.60925 13.975L9.7155 13.2573C9.80175 12.7903 10.1738 12.2398 10.4595 12.2398C10.6255 12.2398 10.619 12.4 10.5725 12.6998L10.453 13.508C10.3933 13.919 10.3268 14.3933 10.2605 14.6928H11.5093C11.516 14.5115 11.5558 14.2258 11.589 13.9748L11.6953 13.257C11.7815 12.79 12.1535 12.2395 12.4393 12.2395C12.6055 12.2395 12.5988 12.3928 12.572 12.6018L12.2738 14.6923H13.4133L13.814 12.31ZM19.781 13.7105L19.6483 14.533C19.4423 14.6445 19.057 14.8048 18.612 14.8048C17.8548 14.8048 17.702 14.4008 17.8215 13.5435L18.014 12.1638H17.6415L17.747 11.2708L18.1538 11.251L18.3065 10.6028L19.4555 10.1708L19.3095 11.251H20.1C20.0733 11.3625 19.9805 11.9758 19.9538 12.1638H19.1833L19.0105 13.439C18.964 13.7665 18.9908 13.885 19.2165 13.885C19.3825 13.8848 19.6283 13.7873 19.781 13.7105ZM15.423 14.1018C15.841 14.0505 16.1288 13.6473 16.198 13.245L16.2098 13.1373C16.03 13.0968 15.7705 13.0663 15.5185 13.0973C15.2788 13.1268 15.079 13.2263 14.9718 13.3708C14.891 13.4743 14.85 13.5983 14.868 13.7458C14.8953 13.9673 15.1403 14.1363 15.423 14.1018ZM15.0668 14.739C14.4768 14.8115 14.088 14.5773 13.9713 14.0443C13.8978 13.709 13.9995 13.3273 14.1775 13.0993C14.4155 12.8013 14.8038 12.6098 15.277 12.5518C15.658 12.505 15.979 12.528 16.2793 12.585L16.2918 12.5335C16.3003 12.4513 16.3088 12.369 16.2968 12.2703C16.2658 12.018 16.0663 11.8673 15.5748 11.9278C15.2428 11.9685 14.927 12.0885 14.6818 12.225L14.4435 11.5043C14.7755 11.3135 15.1945 11.1683 15.674 11.1095C16.5898 10.997 17.233 11.2893 17.3155 11.9603C17.3375 12.1388 17.34 12.3283 17.3175 12.4998C17.1998 13.3298 17.1245 13.9543 17.0915 14.3733C17.0865 14.4378 17.0868 14.549 17.0928 14.7073L15.9565 14.7063C15.9805 14.6405 16.0023 14.5523 16.0215 14.441C16.0343 14.3678 16.0433 14.2753 16.0493 14.1635C15.8083 14.4925 15.4785 14.6885 15.0668 14.739Z" fill="white"/>
</g>
<defs>
<clipPath id="clip0_173_673">
<rect width="25" height="25" fill="white"/>
</clipPath>
</defs>
</svg>
